<?xml version="1.0" encoding="UTF-8"?>
<svg xmlns="http://www.w3.org/2000/svg" version="1.1" viewBox="0 0 16 16">
  <defs>
    <style>
      .cls-1 {
        fill: #171531;
      }

      .cls-2 {
        fill: #edf4ec;
      }
    </style>
  </defs>
  <!-- Generator: Adobe Illustrator 28.6.0, SVG Export Plug-In . SVG Version: 1.2.0 Build 709)  -->
  <g>
    <g id="Layer_1">
      <g id="Layer_2">
        <rect class="cls-1" width="16" height="16"/>
      </g>
      <g>
        <path class="cls-2" d="M1.85,10.03c-.22-.14-.39-.32-.52-.56-.13-.23-.19-.49-.19-.77v-2.44c0-.28.06-.54.19-.77.13-.23.3-.42.52-.56s.46-.21.73-.21h2.12v.95h-2.12c-.14,0-.25.06-.35.17s-.14.25-.14.42v2.44c0,.1.02.2.06.28.04.09.1.16.18.21.08.05.16.08.24.08h2.12v.96h-2.12c-.27,0-.51-.07-.73-.21Z"/>
        <path class="cls-2" d="M5.27,9.28h2.56c.14,0,.25-.06.35-.17.1-.11.14-.25.14-.41v-.22c0-.16-.05-.3-.14-.41-.1-.11-.21-.17-.35-.17h-1.13c-.27,0-.52-.07-.74-.21s-.39-.33-.52-.56c-.12-.23-.19-.49-.19-.75v-.1c0-.27.06-.53.18-.76.12-.24.29-.42.52-.56s.47-.21.74-.21h2.14v.95h-2.14c-.17,0-.29.06-.37.19-.08.13-.12.3-.12.52,0,.17.05.31.14.43.1.12.21.18.35.18h1.13c.27,0,.52.07.74.2.22.14.39.32.52.54.12.22.19.47.19.74v.22c0,.27-.06.52-.19.76-.12.24-.3.43-.52.57-.22.14-.46.22-.73.22h-2.56v-.96Z"/>
        <path class="cls-2" d="M9.94,4.72h.94l1.7,2.5h-.38s1.73-2.5,1.73-2.5h.91v5.51h-.94v-4.28l.22.06-1.46,1.93h-.54l-1.46-1.93.23-.06v4.28h-.94v-5.51Z"/>
      </g>
    </g>
  </g>
</svg>