<?xml version="1.0" encoding="UTF-8"?>
<svg xmlns="http://www.w3.org/2000/svg" version="1.1" viewBox="0 0 444 278">
  <!-- Generator: Adobe Illustrator 28.6.0, SVG Export Plug-In . SVG Version: 1.2.0 Build 709)  -->
  <g>
    <g id="Layer_1">
      <g id="Community_science_museum">
        <path d="M13.75,77.61c-2.19-1.39-3.91-3.24-5.16-5.56-1.25-2.32-1.88-4.89-1.88-7.72v-24.4c0-2.83.63-5.4,1.88-7.72,1.25-2.32,2.97-4.17,5.16-5.56,2.19-1.39,4.61-2.08,7.28-2.08h21.2v9.52h-21.2c-1.39,0-2.55.56-3.48,1.68-.93,1.12-1.4,2.51-1.4,4.16v24.4c0,1.01.21,1.96.64,2.84.43.88,1.03,1.59,1.8,2.12.77.53,1.59.8,2.44.8h21.2v9.6h-21.2c-2.67,0-5.09-.69-7.28-2.08Z"/>
        <path d="M56.19,77.69c-2.21-1.39-3.96-3.25-5.24-5.6s-1.92-4.91-1.92-7.68v-24.56c0-2.77.65-5.35,1.96-7.72,1.31-2.37,3.05-4.24,5.24-5.6,2.19-1.36,4.59-2.04,7.2-2.04h11.28c2.67,0,5.11.68,7.32,2.04,2.21,1.36,3.95,3.23,5.2,5.6,1.25,2.37,1.88,4.97,1.88,7.8v24.48c0,2.83-.63,5.41-1.88,7.76-1.25,2.35-2.99,4.2-5.2,5.56-2.21,1.36-4.65,2.04-7.32,2.04h-11.28c-2.61,0-5.03-.69-7.24-2.08ZM78.19,68.49c.99-1.12,1.48-2.48,1.48-4.08v-24.56c0-1.07-.23-2.04-.68-2.92-.45-.88-1.07-1.59-1.84-2.12-.77-.53-1.59-.8-2.44-.8h-11.28c-1.33,0-2.49.57-3.48,1.72-.99,1.15-1.48,2.52-1.48,4.12v24.56c0,1.07.23,2.04.68,2.92.45.88,1.05,1.57,1.8,2.08.75.51,1.57.76,2.48.76h11.28c1.33,0,2.49-.56,3.48-1.68Z"/>
        <path d="M99.03,32.05c1.28-2.37,3.01-4.24,5.2-5.6,2.19-1.36,4.56-2.04,7.12-2.04h7.28c3.36,0,6.56,1.36,9.6,4.08,3.04-2.72,6.24-4.08,9.6-4.08h7.28c2.51,0,4.85.69,7.04,2.08,2.19,1.39,3.92,3.27,5.2,5.64,1.28,2.37,1.92,4.92,1.92,7.64v40h-9.44v-40c0-1.01-.21-1.97-.64-2.88-.43-.91-1-1.61-1.72-2.12-.72-.51-1.51-.76-2.36-.76h-7.28c-1.33,0-2.49.57-3.48,1.72-.99,1.15-1.48,2.49-1.48,4.04v40h-9.36v-40c0-1.01-.23-1.97-.68-2.88-.45-.91-1.05-1.61-1.8-2.12-.75-.51-1.55-.76-2.4-.76h-7.28c-1.33,0-2.47.59-3.4,1.76-.93,1.17-1.4,2.53-1.4,4.08v39.92h-9.44v-40c0-2.77.64-5.35,1.92-7.72Z"/>
        <path d="M169.19,32.05c1.28-2.37,3.01-4.24,5.2-5.6,2.19-1.36,4.56-2.04,7.12-2.04h7.28c3.36,0,6.56,1.36,9.6,4.08,3.04-2.72,6.24-4.08,9.6-4.08h7.28c2.51,0,4.85.69,7.04,2.08,2.19,1.39,3.92,3.27,5.2,5.64,1.28,2.37,1.92,4.92,1.92,7.64v40h-9.44v-40c0-1.01-.21-1.97-.64-2.88-.43-.91-1-1.61-1.72-2.12-.72-.51-1.51-.76-2.36-.76h-7.28c-1.33,0-2.49.57-3.48,1.72-.99,1.15-1.48,2.49-1.48,4.04v40h-9.36v-40c0-1.01-.23-1.97-.68-2.88-.45-.91-1.05-1.61-1.8-2.12-.75-.51-1.55-.76-2.4-.76h-7.28c-1.33,0-2.47.59-3.4,1.76-.93,1.17-1.4,2.53-1.4,4.08v39.92h-9.44v-40c0-2.77.64-5.35,1.92-7.72Z"/>
        <path d="M244.63,77.85c-2.24-1.39-4-3.27-5.28-5.64-1.28-2.37-1.92-4.95-1.92-7.72V24.65h9.44v39.84c0,1.07.23,2.04.68,2.92.45.88,1.07,1.59,1.84,2.12.77.53,1.59.8,2.44.8h11.2c1.33,0,2.49-.59,3.48-1.76.99-1.17,1.48-2.53,1.48-4.08V24.65h9.44v39.84c0,2.72-.64,5.25-1.92,7.6s-3.03,4.24-5.24,5.68c-2.21,1.44-4.63,2.16-7.24,2.16h-11.2c-2.56,0-4.96-.69-7.2-2.08Z"/>
        <path d="M287.31,32.17c1.25-2.35,2.97-4.23,5.16-5.64,2.19-1.41,4.64-2.12,7.36-2.12h11.28c2.72,0,5.17.71,7.36,2.12,2.19,1.41,3.91,3.29,5.16,5.64,1.25,2.35,1.88,4.88,1.88,7.6v39.92h-9.44v-39.92c0-1.55-.48-2.89-1.44-4.04-.96-1.15-2.13-1.72-3.52-1.72h-11.28c-1.39,0-2.56.57-3.52,1.72-.96,1.15-1.44,2.49-1.44,4.04v39.92h-9.44v-39.92c0-2.72.63-5.25,1.88-7.6Z"/>
        <path d="M340.39,77.61c-2.13-1.44-3.81-3.35-5.04-5.72-1.23-2.37-1.84-4.92-1.84-7.64V24.49h9.44v39.76c0,1.01.21,1.97.64,2.88.43.91,1.01,1.61,1.76,2.12.75.51,1.57.76,2.48.76h10.4v9.76h-10.56c-2.72,0-5.15-.72-7.28-2.16ZM333.59,11.77h9.2v8.16h-9.2v-8.16Z"/>
        <path d="M368.91,77.61c-2.16-1.44-3.84-3.35-5.04-5.72-1.2-2.37-1.8-4.92-1.8-7.64V4.89h9.44v19.68h21.36v9.52h-21.36v30.16c0,1.6.47,2.96,1.4,4.08.93,1.12,2.09,1.68,3.48,1.68h10.32v9.76h-10.56c-2.67,0-5.08-.72-7.24-2.16Z"/>
        <path d="M406.62,89.93h16.8c.96,0,1.81-.28,2.56-.84.75-.56,1.33-1.28,1.76-2.16.43-.88.64-1.8.64-2.76v-6.48c-.43.53-.93,1-1.52,1.4-.59.4-1.2.71-1.84.92-.64.21-1.25.32-1.84.32h-11.04c-2.72,0-5.17-.71-7.36-2.12-2.19-1.41-3.91-3.29-5.16-5.64-1.25-2.35-1.88-4.88-1.88-7.6V24.65h9.44v40.32c0,1.6.48,2.96,1.44,4.08s2.13,1.68,3.52,1.68h11.28c.96,0,1.81-.28,2.56-.84.75-.56,1.33-1.28,1.76-2.16.43-.88.64-1.8.64-2.76V24.65h9.44v59.52c0,2.67-.63,5.19-1.88,7.56-1.25,2.37-2.99,4.27-5.2,5.68-2.21,1.41-4.65,2.12-7.32,2.12h-16.8v-9.6Z"/>
        <path d="M12.95,173.81c-2.13-1.41-3.81-3.33-5.04-5.76-1.23-2.43-1.89-5.11-2-8.04h9.52c.16,1.97.67,3.53,1.52,4.68.85,1.15,1.97,1.72,3.36,1.72h11.28c1.65,0,2.89-.67,3.72-2,.83-1.33,1.24-3.2,1.24-5.6,0-1.44-.49-2.57-1.48-3.4-.99-.83-2.23-1.45-3.72-1.88-1.49-.43-3.63-.88-6.4-1.36-3.95-.75-7.17-1.55-9.68-2.4-2.51-.85-4.69-2.33-6.56-4.44-1.87-2.11-2.8-5.05-2.8-8.84,0-2.88.6-5.53,1.8-7.96,1.2-2.43,2.89-4.39,5.08-5.88,2.19-1.49,4.69-2.24,7.52-2.24h11.28c2.67,0,5.07.71,7.2,2.12,2.13,1.41,3.84,3.33,5.12,5.76,1.28,2.43,1.97,5.13,2.08,8.12h-9.52c-.16-1.97-.67-3.53-1.52-4.68-.85-1.15-1.97-1.72-3.36-1.72h-11.28c-1.6,0-2.83.61-3.68,1.84-.85,1.23-1.28,2.85-1.28,4.88,0,1.49.52,2.68,1.56,3.56,1.04.88,2.33,1.55,3.88,2,1.55.45,3.73.95,6.56,1.48,3.89.69,7.09,1.47,9.6,2.32,2.51.85,4.64,2.29,6.4,4.32,1.76,2.03,2.64,4.85,2.64,8.48,0,3.15-.57,6.01-1.72,8.6-1.15,2.59-2.81,4.64-5,6.16-2.19,1.52-4.75,2.28-7.68,2.28h-11.28c-2.77,0-5.23-.71-7.36-2.12Z"/>
        <path d="M60.23,173.61c-2.19-1.39-3.91-3.24-5.16-5.56-1.25-2.32-1.88-4.89-1.88-7.72v-24.4c0-2.83.63-5.4,1.88-7.72,1.25-2.32,2.97-4.17,5.16-5.56,2.19-1.39,4.61-2.08,7.28-2.08h21.2v9.52h-21.2c-1.39,0-2.55.56-3.48,1.68-.93,1.12-1.4,2.51-1.4,4.16v24.4c0,1.01.21,1.96.64,2.84.43.88,1.03,1.59,1.8,2.12.77.53,1.59.8,2.44.8h21.2v9.6h-21.2c-2.67,0-5.09-.69-7.28-2.08Z"/>
        <path d="M102.39,173.61c-2.13-1.44-3.81-3.35-5.04-5.72-1.23-2.37-1.84-4.92-1.84-7.64v-39.76h9.44v39.76c0,1.01.21,1.97.64,2.88.43.91,1.01,1.61,1.76,2.12.75.51,1.57.76,2.48.76h10.4v9.76h-10.56c-2.72,0-5.15-.72-7.28-2.16ZM95.59,107.77h9.2v8.16h-9.2v-8.16Z"/>
        <path d="M129.71,173.57c-2.16-1.41-3.77-3.28-4.84-5.6-1.07-2.32-1.6-4.84-1.6-7.56v-24.72c0-2.72.63-5.25,1.88-7.6,1.25-2.35,2.97-4.23,5.16-5.64,2.19-1.41,4.64-2.12,7.36-2.12h11.28c2.72,0,5.17.71,7.36,2.12,2.19,1.41,3.91,3.29,5.16,5.64,1.25,2.35,1.88,4.88,1.88,7.6v16.48h-30.64v8.24c0,2.4.67,3.96,2,4.68,1.33.72,3.41,1.08,6.24,1.08h17.84v9.52h-21.04c-3.2,0-5.88-.71-8.04-2.12ZM153.91,143.21v-7.52c0-1.55-.48-2.89-1.44-4.04-.96-1.15-2.13-1.72-3.52-1.72h-11.28c-1.39,0-2.56.56-3.52,1.68s-1.44,2.48-1.44,4.08v7.52h21.2Z"/>
        <path d="M173.23,128.17c1.25-2.35,2.97-4.23,5.16-5.64,2.19-1.41,4.64-2.12,7.36-2.12h11.28c2.72,0,5.17.71,7.36,2.12,2.19,1.41,3.91,3.29,5.16,5.64,1.25,2.35,1.88,4.88,1.88,7.6v39.92h-9.44v-39.92c0-1.55-.48-2.89-1.44-4.04-.96-1.15-2.13-1.72-3.52-1.72h-11.28c-1.39,0-2.56.57-3.52,1.72-.96,1.15-1.44,2.49-1.44,4.04v39.92h-9.44v-39.92c0-2.72.63-5.25,1.88-7.6Z"/>
        <path d="M226.47,173.61c-2.19-1.39-3.91-3.24-5.16-5.56-1.25-2.32-1.88-4.89-1.88-7.72v-24.4c0-2.83.63-5.4,1.88-7.72,1.25-2.32,2.97-4.17,5.16-5.56,2.19-1.39,4.61-2.08,7.28-2.08h21.2v9.52h-21.2c-1.39,0-2.55.56-3.48,1.68-.93,1.12-1.4,2.51-1.4,4.16v24.4c0,1.01.21,1.96.64,2.84.43.88,1.03,1.59,1.8,2.12.77.53,1.59.8,2.44.8h21.2v9.6h-21.2c-2.67,0-5.09-.69-7.28-2.08Z"/>
        <path d="M268.19,173.57c-2.16-1.41-3.77-3.28-4.84-5.6-1.07-2.32-1.6-4.84-1.6-7.56v-24.72c0-2.72.63-5.25,1.88-7.6,1.25-2.35,2.97-4.23,5.16-5.64,2.19-1.41,4.64-2.12,7.36-2.12h11.28c2.72,0,5.17.71,7.36,2.12,2.19,1.41,3.91,3.29,5.16,5.64,1.25,2.35,1.88,4.88,1.88,7.6v16.48h-30.64v8.24c0,2.4.67,3.96,2,4.68,1.33.72,3.41,1.08,6.24,1.08h17.84v9.52h-21.04c-3.2,0-5.88-.71-8.04-2.12ZM292.38,143.21v-7.52c0-1.55-.48-2.89-1.44-4.04-.96-1.15-2.13-1.72-3.52-1.72h-11.28c-1.39,0-2.56.56-3.52,1.68s-1.44,2.48-1.44,4.08v7.52h21.2Z"/>
        <path d="M8.63,224.05c1.28-2.37,3.01-4.24,5.2-5.6,2.19-1.36,4.56-2.04,7.12-2.04h7.28c3.36,0,6.56,1.36,9.6,4.08,3.04-2.72,6.24-4.08,9.6-4.08h7.28c2.51,0,4.85.69,7.04,2.08,2.19,1.39,3.92,3.27,5.2,5.64s1.92,4.92,1.92,7.64v40h-9.44v-40c0-1.01-.21-1.97-.64-2.88-.43-.91-1-1.61-1.72-2.12-.72-.51-1.51-.76-2.36-.76h-7.28c-1.33,0-2.49.57-3.48,1.72-.99,1.15-1.48,2.49-1.48,4.04v40h-9.36v-40c0-1.01-.23-1.97-.68-2.88-.45-.91-1.05-1.61-1.8-2.12-.75-.51-1.55-.76-2.4-.76h-7.28c-1.33,0-2.47.59-3.4,1.76-.93,1.17-1.4,2.53-1.4,4.08v39.92H6.71v-40c0-2.77.64-5.35,1.92-7.72Z"/>
        <path d="M84.07,269.85c-2.24-1.39-4-3.27-5.28-5.64-1.28-2.37-1.92-4.95-1.92-7.72v-39.84h9.44v39.84c0,1.07.23,2.04.68,2.92.45.88,1.07,1.59,1.84,2.12.77.53,1.59.8,2.44.8h11.2c1.33,0,2.49-.59,3.48-1.76.99-1.17,1.48-2.53,1.48-4.08v-39.84h9.44v39.84c0,2.72-.64,5.25-1.92,7.6s-3.03,4.24-5.24,5.68c-2.21,1.44-4.63,2.16-7.24,2.16h-11.2c-2.56,0-4.96-.69-7.2-2.08Z"/>
        <path d="M131.11,269.81c-2.13-1.41-3.81-3.33-5.04-5.76-1.23-2.43-1.89-5.11-2-8.04h9.52c.16,1.97.67,3.53,1.52,4.68.85,1.15,1.97,1.72,3.36,1.72h11.28c1.65,0,2.89-.67,3.72-2,.83-1.33,1.24-3.2,1.24-5.6,0-1.44-.49-2.57-1.48-3.4-.99-.83-2.23-1.45-3.72-1.88-1.49-.43-3.63-.88-6.4-1.36-3.95-.75-7.17-1.55-9.68-2.4-2.51-.85-4.69-2.33-6.56-4.44-1.87-2.11-2.8-5.05-2.8-8.84,0-2.88.6-5.53,1.8-7.96,1.2-2.43,2.89-4.39,5.08-5.88,2.19-1.49,4.69-2.24,7.52-2.24h11.28c2.67,0,5.07.71,7.2,2.12,2.13,1.41,3.84,3.33,5.12,5.76,1.28,2.43,1.97,5.13,2.08,8.12h-9.52c-.16-1.97-.67-3.53-1.52-4.68-.85-1.15-1.97-1.72-3.36-1.72h-11.28c-1.6,0-2.83.61-3.68,1.84-.85,1.23-1.28,2.85-1.28,4.88,0,1.49.52,2.68,1.56,3.56,1.04.88,2.33,1.55,3.88,2,1.55.45,3.73.95,6.56,1.48,3.89.69,7.09,1.47,9.6,2.32,2.51.85,4.64,2.29,6.4,4.32,1.76,2.03,2.64,4.85,2.64,8.48,0,3.15-.57,6.01-1.72,8.6-1.15,2.59-2.81,4.64-5,6.16-2.19,1.52-4.75,2.28-7.68,2.28h-11.28c-2.77,0-5.23-.71-7.36-2.12Z"/>
        <path d="M177.79,269.57c-2.16-1.41-3.77-3.28-4.84-5.6-1.07-2.32-1.6-4.84-1.6-7.56v-24.72c0-2.72.63-5.25,1.88-7.6,1.25-2.35,2.97-4.23,5.16-5.64,2.19-1.41,4.64-2.12,7.36-2.12h11.28c2.72,0,5.17.71,7.36,2.12,2.19,1.41,3.91,3.29,5.16,5.64,1.25,2.35,1.88,4.88,1.88,7.6v16.48h-30.64v8.24c0,2.4.67,3.96,2,4.68,1.33.72,3.41,1.08,6.24,1.08h17.84v9.52h-21.04c-3.2,0-5.88-.71-8.04-2.12ZM201.99,239.21v-7.52c0-1.55-.48-2.89-1.44-4.04-.96-1.15-2.13-1.72-3.52-1.72h-11.28c-1.39,0-2.56.56-3.52,1.68s-1.44,2.48-1.44,4.08v7.52h21.2Z"/>
        <path d="M226.63,269.85c-2.24-1.39-4-3.27-5.28-5.64-1.28-2.37-1.92-4.95-1.92-7.72v-39.84h9.44v39.84c0,1.07.23,2.04.68,2.92.45.88,1.07,1.59,1.84,2.12.77.53,1.59.8,2.44.8h11.2c1.33,0,2.49-.59,3.48-1.76.99-1.17,1.48-2.53,1.48-4.08v-39.84h9.44v39.84c0,2.72-.64,5.25-1.92,7.6s-3.03,4.24-5.24,5.68c-2.21,1.44-4.63,2.16-7.24,2.16h-11.2c-2.56,0-4.96-.69-7.2-2.08Z"/>
        <path d="M269.35,224.05c1.28-2.37,3.01-4.24,5.2-5.6,2.19-1.36,4.56-2.04,7.12-2.04h7.28c3.36,0,6.56,1.36,9.6,4.08,3.04-2.72,6.24-4.08,9.6-4.08h7.28c2.51,0,4.85.69,7.04,2.08,2.19,1.39,3.92,3.27,5.2,5.64,1.28,2.37,1.92,4.92,1.92,7.64v40h-9.44v-40c0-1.01-.21-1.97-.64-2.88-.43-.91-1-1.61-1.72-2.12-.72-.51-1.51-.76-2.36-.76h-7.28c-1.33,0-2.49.57-3.48,1.72-.99,1.15-1.48,2.49-1.48,4.04v40h-9.36v-40c0-1.01-.23-1.97-.68-2.88-.45-.91-1.05-1.61-1.8-2.12-.75-.51-1.55-.76-2.4-.76h-7.28c-1.33,0-2.47.59-3.4,1.76-.93,1.17-1.4,2.53-1.4,4.08v39.92h-9.44v-40c0-2.77.64-5.35,1.92-7.72Z"/>
      </g>
    </g>
  </g>
</svg>